<?xml version="1.0"?>
<svg width="450" height="450"><rect x="0" y="0" width="50" height="50" style="fill:none; stroke:black; stroke-width:1"/><text x="17" y="35" font-size="30" fill="black">A</text><rect x="0" y="50" width="50" height="50" style="fill:none; stroke:black; stroke-width:1"/><text x="17" y="85" font-size="30" fill="black">B</text><rect x="0" y="100" width="50" height="50" style="fill:none; stroke:black; stroke-width:1"/><text x="17" y="135" font-size="30" fill="black">C</text><rect x="50" y="0" width="50" height="50" style="fill:none; stroke:black; stroke-width:1"/><text x="67" y="35" font-size="30" fill="black">D</text><rect x="50" y="50" width="50" height="50" style="fill:none; stroke:black; stroke-width:1"/><text x="67" y="85" font-size="30" fill="black">E</text><rect x="50" y="100" width="50" height="50" style="fill:none; stroke:black; stroke-width:1"/><text x="67" y="135" font-size="30" fill="black">F</text><rect x="100" y="0" width="50" height="50" style="fill:none; stroke:black; stroke-width:1"/><text x="117" y="35" font-size="30" fill="black">G</text><rect x="100" y="50" width="50" height="50" style="fill:none; stroke:black; stroke-width:1"/><text x="117" y="85" font-size="30" fill="black">H</text><rect x="100" y="100" width="50" height="50" style="fill:none; stroke:black; stroke-width:1"/><text x="117" y="135" font-size="30" fill="black">K</text><rect x="0" y="150" width="50" height="50" style="fill:none; stroke:black; stroke-width:1"/><text x="17" y="185" font-size="30" fill="black">1</text><rect x="0" y="200" width="50" height="50" style="fill:none; stroke:black; stroke-width:1"/><text x="17" y="235" font-size="30" fill="black">1</text><rect x="0" y="250" width="50" height="50" style="fill:none; stroke:black; stroke-width:1"/><text x="17" y="285" font-size="30" fill="black">1</text><rect x="50" y="150" width="50" height="50" style="fill:none; stroke:black; stroke-width:1"/><text x="67" y="185" font-size="30" fill="black">1</text><rect x="50" y="200" width="50" height="50" style="fill:none; stroke:black; stroke-width:1"/><text x="67" y="235" font-size="30" fill="black">1</text><rect x="50" y="250" width="50" height="50" style="fill:none; stroke:black; stroke-width:1"/><text x="67" y="285" font-size="30" fill="black">1</text><rect x="100" y="150" width="50" height="50" style="fill:none; stroke:black; stroke-width:1"/><text x="117" y="185" font-size="30" fill="black">1</text><rect x="100" y="200" width="50" height="50" style="fill:none; stroke:black; stroke-width:1"/><text x="117" y="235" font-size="30" fill="black">1</text><rect x="100" y="250" width="50" height="50" style="fill:none; stroke:black; stroke-width:1"/><text x="117" y="285" font-size="30" fill="black">1</text><rect x="0" y="300" width="50" height="50" style="fill:none; stroke:black; stroke-width:1"/><text x="17" y="335" font-size="30" fill="black">1</text><rect x="0" y="350" width="50" height="50" style="fill:none; stroke:black; stroke-width:1"/><text x="17" y="385" font-size="30" fill="black">1</text><rect x="0" y="400" width="50" height="50" style="fill:none; stroke:black; stroke-width:1"/><text x="17" y="435" font-size="30" fill="black">1</text><rect x="50" y="300" width="50" height="50" style="fill:none; stroke:black; stroke-width:1"/><text x="67" y="335" font-size="30" fill="black">1</text><rect x="50" y="350" width="50" height="50" style="fill:none; stroke:black; stroke-width:1"/><text x="67" y="385" font-size="30" fill="black">1</text><rect x="50" y="400" width="50" height="50" style="fill:none; stroke:black; stroke-width:1"/><text x="67" y="435" font-size="30" fill="black">1</text><rect x="100" y="300" width="50" height="50" style="fill:none; stroke:black; stroke-width:1"/><text x="117" y="335" font-size="30" fill="black">1</text><rect x="100" y="350" width="50" height="50" style="fill:none; stroke:black; stroke-width:1"/><text x="117" y="385" font-size="30" fill="black">1</text><rect x="100" y="400" width="50" height="50" style="fill:none; stroke:black; stroke-width:1"/><text x="117" y="435" font-size="30" fill="black">1</text><rect x="150" y="0" width="50" height="50" style="fill:none; stroke:black; stroke-width:1"/><text x="167" y="35" font-size="30" fill="black">1</text><rect x="150" y="50" width="50" height="50" style="fill:none; stroke:black; stroke-width:1"/><text x="167" y="85" font-size="30" fill="black">1</text><rect x="150" y="100" width="50" height="50" style="fill:none; stroke:black; stroke-width:1"/><text x="167" y="135" font-size="30" fill="black">1</text><rect x="200" y="0" width="50" height="50" style="fill:none; stroke:black; stroke-width:1"/><text x="217" y="35" font-size="30" fill="black">1</text><rect x="200" y="50" width="50" height="50" style="fill:none; stroke:black; stroke-width:1"/><text x="217" y="85" font-size="30" fill="black">1</text><rect x="200" y="100" width="50" height="50" style="fill:none; stroke:black; stroke-width:1"/><text x="217" y="135" font-size="30" fill="black">1</text><rect x="250" y="0" width="50" height="50" style="fill:none; stroke:black; stroke-width:1"/><text x="267" y="35" font-size="30" fill="black">1</text><rect x="250" y="50" width="50" height="50" style="fill:none; stroke:black; stroke-width:1"/><text x="267" y="85" font-size="30" fill="black">1</text><rect x="250" y="100" width="50" height="50" style="fill:none; stroke:black; stroke-width:1"/><text x="267" y="135" font-size="30" fill="black">1</text><rect x="150" y="150" width="50" height="50" style="fill:none; stroke:black; stroke-width:1"/><text x="167" y="185" font-size="30" fill="black">1</text><rect x="150" y="200" width="50" height="50" style="fill:none; stroke:black; stroke-width:1"/><text x="167" y="235" font-size="30" fill="black">1</text><rect x="150" y="250" width="50" height="50" style="fill:none; stroke:black; stroke-width:1"/><text x="167" y="285" font-size="30" fill="black">1</text><rect x="200" y="150" width="50" height="50" style="fill:none; stroke:black; stroke-width:1"/><text x="217" y="185" font-size="30" fill="black">1</text><rect x="200" y="200" width="50" height="50" style="fill:none; stroke:black; stroke-width:1"/><text x="217" y="235" font-size="30" fill="black">1</text><rect x="200" y="250" width="50" height="50" style="fill:none; stroke:black; stroke-width:1"/><text x="217" y="285" font-size="30" fill="black">1</text><rect x="250" y="150" width="50" height="50" style="fill:none; stroke:black; stroke-width:1"/><text x="267" y="185" font-size="30" fill="black">1</text><rect x="250" y="200" width="50" height="50" style="fill:none; stroke:black; stroke-width:1"/><text x="267" y="235" font-size="30" fill="black">1</text><rect x="250" y="250" width="50" height="50" style="fill:none; stroke:black; stroke-width:1"/><text x="267" y="285" font-size="30" fill="black">1</text><rect x="150" y="300" width="50" height="50" style="fill:none; stroke:black; stroke-width:1"/><text x="167" y="335" font-size="30" fill="black">1</text><rect x="150" y="350" width="50" height="50" style="fill:none; stroke:black; stroke-width:1"/><text x="167" y="385" font-size="30" fill="black">1</text><rect x="150" y="400" width="50" height="50" style="fill:none; stroke:black; stroke-width:1"/><text x="167" y="435" font-size="30" fill="black">1</text><rect x="200" y="300" width="50" height="50" style="fill:none; stroke:black; stroke-width:1"/><text x="217" y="335" font-size="30" fill="black">1</text><rect x="200" y="350" width="50" height="50" style="fill:none; stroke:black; stroke-width:1"/><text x="217" y="385" font-size="30" fill="black">1</text><rect x="200" y="400" width="50" height="50" style="fill:none; stroke:black; stroke-width:1"/><text x="217" y="435" font-size="30" fill="black">1</text><rect x="250" y="300" width="50" height="50" style="fill:none; stroke:black; stroke-width:1"/><text x="267" y="335" font-size="30" fill="black">1</text><rect x="250" y="350" width="50" height="50" style="fill:none; stroke:black; stroke-width:1"/><text x="267" y="385" font-size="30" fill="black">1</text><rect x="250" y="400" width="50" height="50" style="fill:none; stroke:black; stroke-width:1"/><text x="267" y="435" font-size="30" fill="black">1</text><rect x="300" y="0" width="50" height="50" style="fill:none; stroke:black; stroke-width:1"/><text x="317" y="35" font-size="30" fill="black">1</text><rect x="300" y="50" width="50" height="50" style="fill:none; stroke:black; stroke-width:1"/><text x="317" y="85" font-size="30" fill="black">1</text><rect x="300" y="100" width="50" height="50" style="fill:none; stroke:black; stroke-width:1"/><text x="317" y="135" font-size="30" fill="black">1</text><rect x="350" y="0" width="50" height="50" style="fill:none; stroke:black; stroke-width:1"/><text x="367" y="35" font-size="30" fill="black">1</text><rect x="350" y="50" width="50" height="50" style="fill:none; stroke:black; stroke-width:1"/><text x="367" y="85" font-size="30" fill="black">1</text><rect x="350" y="100" width="50" height="50" style="fill:none; stroke:black; stroke-width:1"/><text x="367" y="135" font-size="30" fill="black">1</text><rect x="400" y="0" width="50" height="50" style="fill:none; stroke:black; stroke-width:1"/><text x="417" y="35" font-size="30" fill="black">1</text><rect x="400" y="50" width="50" height="50" style="fill:none; stroke:black; stroke-width:1"/><text x="417" y="85" font-size="30" fill="black">1</text><rect x="400" y="100" width="50" height="50" style="fill:none; stroke:black; stroke-width:1"/><text x="417" y="135" font-size="30" fill="black">1</text><rect x="300" y="150" width="50" height="50" style="fill:none; stroke:black; stroke-width:1"/><text x="317" y="185" font-size="30" fill="black">1</text><rect x="300" y="200" width="50" height="50" style="fill:none; stroke:black; stroke-width:1"/><text x="317" y="235" font-size="30" fill="black">1</text><rect x="300" y="250" width="50" height="50" style="fill:none; stroke:black; stroke-width:1"/><text x="317" y="285" font-size="30" fill="black">1</text><rect x="350" y="150" width="50" height="50" style="fill:none; stroke:black; stroke-width:1"/><text x="367" y="185" font-size="30" fill="black">1</text><rect x="350" y="200" width="50" height="50" style="fill:none; stroke:black; stroke-width:1"/><text x="367" y="235" font-size="30" fill="black">1</text><rect x="350" y="250" width="50" height="50" style="fill:none; stroke:black; stroke-width:1"/><text x="367" y="285" font-size="30" fill="black">1</text><rect x="400" y="150" width="50" height="50" style="fill:none; stroke:black; stroke-width:1"/><text x="417" y="185" font-size="30" fill="black">1</text><rect x="400" y="200" width="50" height="50" style="fill:none; stroke:black; stroke-width:1"/><text x="417" y="235" font-size="30" fill="black">1</text><rect x="400" y="250" width="50" height="50" style="fill:none; stroke:black; stroke-width:1"/><text x="417" y="285" font-size="30" fill="black">1</text><rect x="300" y="300" width="50" height="50" style="fill:none; stroke:black; stroke-width:1"/><text x="317" y="335" font-size="30" fill="black">1</text><rect x="300" y="350" width="50" height="50" style="fill:none; stroke:black; stroke-width:1"/><text x="317" y="385" font-size="30" fill="black">1</text><rect x="300" y="400" width="50" height="50" style="fill:none; stroke:black; stroke-width:1"/><text x="317" y="435" font-size="30" fill="black">1</text><rect x="350" y="300" width="50" height="50" style="fill:none; stroke:black; stroke-width:1"/><text x="367" y="335" font-size="30" fill="black">1</text><rect x="350" y="350" width="50" height="50" style="fill:none; stroke:black; stroke-width:1"/><text x="367" y="385" font-size="30" fill="black">1</text><rect x="350" y="400" width="50" height="50" style="fill:none; stroke:black; stroke-width:1"/><text x="367" y="435" font-size="30" fill="black">1</text><rect x="400" y="300" width="50" height="50" style="fill:none; stroke:black; stroke-width:1"/><text x="417" y="335" font-size="30" fill="black">1</text><rect x="400" y="350" width="50" height="50" style="fill:none; stroke:black; stroke-width:1"/><text x="417" y="385" font-size="30" fill="black">1</text><rect x="400" y="400" width="50" height="50" style="fill:none; stroke:black; stroke-width:1"/><text x="417" y="435" font-size="30" fill="black">1</text></svg>
