<?xml version="1.0"?>
<svg width="450" height="450"><rect x="0" y="0" width="50" height="50" style="fill:none; stroke:black; stroke-width:1"/><text x="17" y="35" font-size="30" fill="black">1</text><rect x="0" y="0" width="50" height="50" style="fill:none; stroke:black; stroke-width:1"/><text x="67" y="35" font-size="30" fill="black">1</text><rect x="0" y="0" width="50" height="50" style="fill:none; stroke:black; stroke-width:1"/><text x="117" y="35" font-size="30" fill="black">1</text><rect x="0" y="-1" width="50" height="50" style="fill:none; stroke:black; stroke-width:1"/><text x="17" y="35" font-size="30" fill="black">2</text><rect x="0" y="-50" width="50" height="50" style="fill:none; stroke:black; stroke-width:1"/><text x="67" y="-15" font-size="30" fill="black">2</text><rect x="0" y="-100" width="50" height="50" style="fill:none; stroke:black; stroke-width:1"/><text x="117" y="-15" font-size="30" fill="black">2</text><rect x="0" y="-2" width="50" height="50" style="fill:none; stroke:black; stroke-width:1"/><text x="17" y="35" font-size="30" fill="black">3</text><rect x="0" y="-100" width="50" height="50" style="fill:none; stroke:black; stroke-width:1"/><text x="67" y="-65" font-size="30" fill="black">3</text><rect x="0" y="-200" width="50" height="50" style="fill:none; stroke:black; stroke-width:1"/><text x="117" y="-65" font-size="30" fill="black">3</text><rect x="-1" y="0" width="50" height="50" style="fill:none; stroke:black; stroke-width:1"/><text x="17" y="35" font-size="30" fill="black">4</text><rect x="-50" y="0" width="50" height="50" style="fill:none; stroke:black; stroke-width:1"/><text x="17" y="35" font-size="30" fill="black">4</text><rect x="-100" y="0" width="50" height="50" style="fill:none; stroke:black; stroke-width:1"/><text x="17" y="35" font-size="30" fill="black">4</text><rect x="-1" y="-1" width="50" height="50" style="fill:none; stroke:black; stroke-width:1"/><text x="17" y="35" font-size="30" fill="black">5</text><rect x="-50" y="-50" width="50" height="50" style="fill:none; stroke:black; stroke-width:1"/><text x="17" y="-15" font-size="30" fill="black">5</text><rect x="-100" y="-100" width="50" height="50" style="fill:none; stroke:black; stroke-width:1"/><text x="17" y="-15" font-size="30" fill="black">5</text><rect x="-1" y="-2" width="50" height="50" style="fill:none; stroke:black; stroke-width:1"/><text x="17" y="35" font-size="30" fill="black">6</text><rect x="-50" y="-100" width="50" height="50" style="fill:none; stroke:black; stroke-width:1"/><text x="17" y="-65" font-size="30" fill="black">6</text><rect x="-100" y="-200" width="50" height="50" style="fill:none; stroke:black; stroke-width:1"/><text x="17" y="-65" font-size="30" fill="black">6</text><rect x="-2" y="0" width="50" height="50" style="fill:none; stroke:black; stroke-width:1"/><text x="17" y="35" font-size="30" fill="black">7</text><rect x="-100" y="0" width="50" height="50" style="fill:none; stroke:black; stroke-width:1"/><text x="-33" y="35" font-size="30" fill="black">7</text><rect x="-200" y="0" width="50" height="50" style="fill:none; stroke:black; stroke-width:1"/><text x="-83" y="35" font-size="30" fill="black">7</text><rect x="-2" y="-1" width="50" height="50" style="fill:none; stroke:black; stroke-width:1"/><text x="17" y="35" font-size="30" fill="black">8</text><rect x="-100" y="-50" width="50" height="50" style="fill:none; stroke:black; stroke-width:1"/><text x="-33" y="-15" font-size="30" fill="black">8</text><rect x="-200" y="-100" width="50" height="50" style="fill:none; stroke:black; stroke-width:1"/><text x="-83" y="-15" font-size="30" fill="black">8</text><rect x="-2" y="-2" width="50" height="50" style="fill:none; stroke:black; stroke-width:1"/><text x="17" y="35" font-size="30" fill="black">9</text><rect x="-100" y="-100" width="50" height="50" style="fill:none; stroke:black; stroke-width:1"/><text x="-33" y="-65" font-size="30" fill="black">9</text><rect x="-200" y="-200" width="50" height="50" style="fill:none; stroke:black; stroke-width:1"/><text x="-83" y="-65" font-size="30" fill="black">9</text><rect x="0" y="-3" width="50" height="50" style="fill:none; stroke:black; stroke-width:1"/><text x="17" y="35" font-size="30" fill="black">1</text><rect x="0" y="-150" width="50" height="50" style="fill:none; stroke:black; stroke-width:1"/><text x="67" y="-115" font-size="30" fill="black">1</text><rect x="0" y="-300" width="50" height="50" style="fill:none; stroke:black; stroke-width:1"/><text x="117" y="-115" font-size="30" fill="black">1</text><rect x="0" y="-4" width="50" height="50" style="fill:none; stroke:black; stroke-width:1"/><text x="17" y="35" font-size="30" fill="black">1</text><rect x="0" y="-200" width="50" height="50" style="fill:none; stroke:black; stroke-width:1"/><text x="67" y="-165" font-size="30" fill="black">1</text><rect x="0" y="-400" width="50" height="50" style="fill:none; stroke:black; stroke-width:1"/><text x="117" y="-165" font-size="30" fill="black">1</text><rect x="0" y="-5" width="50" height="50" style="fill:none; stroke:black; stroke-width:1"/><text x="17" y="35" font-size="30" fill="black">1</text><rect x="0" y="-250" width="50" height="50" style="fill:none; stroke:black; stroke-width:1"/><text x="67" y="-215" font-size="30" fill="black">1</text><rect x="0" y="-500" width="50" height="50" style="fill:none; stroke:black; stroke-width:1"/><text x="117" y="-215" font-size="30" fill="black">1</text><rect x="-1" y="-3" width="50" height="50" style="fill:none; stroke:black; stroke-width:1"/><text x="17" y="35" font-size="30" fill="black">1</text><rect x="-50" y="-150" width="50" height="50" style="fill:none; stroke:black; stroke-width:1"/><text x="17" y="-115" font-size="30" fill="black">1</text><rect x="-100" y="-300" width="50" height="50" style="fill:none; stroke:black; stroke-width:1"/><text x="17" y="-115" font-size="30" fill="black">1</text><rect x="-1" y="-4" width="50" height="50" style="fill:none; stroke:black; stroke-width:1"/><text x="17" y="35" font-size="30" fill="black">1</text><rect x="-50" y="-200" width="50" height="50" style="fill:none; stroke:black; stroke-width:1"/><text x="17" y="-165" font-size="30" fill="black">1</text><rect x="-100" y="-400" width="50" height="50" style="fill:none; stroke:black; stroke-width:1"/><text x="17" y="-165" font-size="30" fill="black">1</text><rect x="-1" y="-5" width="50" height="50" style="fill:none; stroke:black; stroke-width:1"/><text x="17" y="35" font-size="30" fill="black">1</text><rect x="-50" y="-250" width="50" height="50" style="fill:none; stroke:black; stroke-width:1"/><text x="17" y="-215" font-size="30" fill="black">1</text><rect x="-100" y="-500" width="50" height="50" style="fill:none; stroke:black; stroke-width:1"/><text x="17" y="-215" font-size="30" fill="black">1</text><rect x="-2" y="-3" width="50" height="50" style="fill:none; stroke:black; stroke-width:1"/><text x="17" y="35" font-size="30" fill="black">1</text><rect x="-100" y="-150" width="50" height="50" style="fill:none; stroke:black; stroke-width:1"/><text x="-33" y="-115" font-size="30" fill="black">1</text><rect x="-200" y="-300" width="50" height="50" style="fill:none; stroke:black; stroke-width:1"/><text x="-83" y="-115" font-size="30" fill="black">1</text><rect x="-2" y="-4" width="50" height="50" style="fill:none; stroke:black; stroke-width:1"/><text x="17" y="35" font-size="30" fill="black">1</text><rect x="-100" y="-200" width="50" height="50" style="fill:none; stroke:black; stroke-width:1"/><text x="-33" y="-165" font-size="30" fill="black">1</text><rect x="-200" y="-400" width="50" height="50" style="fill:none; stroke:black; stroke-width:1"/><text x="-83" y="-165" font-size="30" fill="black">1</text><rect x="-2" y="-5" width="50" height="50" style="fill:none; stroke:black; stroke-width:1"/><text x="17" y="35" font-size="30" fill="black">1</text><rect x="-100" y="-250" width="50" height="50" style="fill:none; stroke:black; stroke-width:1"/><text x="-33" y="-215" font-size="30" fill="black">1</text><rect x="-200" y="-500" width="50" height="50" style="fill:none; stroke:black; stroke-width:1"/><text x="-83" y="-215" font-size="30" fill="black">1</text><rect x="0" y="-6" width="50" height="50" style="fill:none; stroke:black; stroke-width:1"/><text x="17" y="35" font-size="30" fill="black">1</text><rect x="0" y="-300" width="50" height="50" style="fill:none; stroke:black; stroke-width:1"/><text x="67" y="-265" font-size="30" fill="black">1</text><rect x="0" y="-600" width="50" height="50" style="fill:none; stroke:black; stroke-width:1"/><text x="117" y="-265" font-size="30" fill="black">1</text><rect x="0" y="-7" width="50" height="50" style="fill:none; stroke:black; stroke-width:1"/><text x="17" y="35" font-size="30" fill="black">1</text><rect x="0" y="-350" width="50" height="50" style="fill:none; stroke:black; stroke-width:1"/><text x="67" y="-315" font-size="30" fill="black">1</text><rect x="0" y="-700" width="50" height="50" style="fill:none; stroke:black; stroke-width:1"/><text x="117" y="-315" font-size="30" fill="black">1</text><rect x="0" y="-8" width="50" height="50" style="fill:none; stroke:black; stroke-width:1"/><text x="17" y="35" font-size="30" fill="black">1</text><rect x="0" y="-400" width="50" height="50" style="fill:none; stroke:black; stroke-width:1"/><text x="67" y="-365" font-size="30" fill="black">1</text><rect x="0" y="-800" width="50" height="50" style="fill:none; stroke:black; stroke-width:1"/><text x="117" y="-365" font-size="30" fill="black">1</text><rect x="-1" y="-6" width="50" height="50" style="fill:none; stroke:black; stroke-width:1"/><text x="17" y="35" font-size="30" fill="black">1</text><rect x="-50" y="-300" width="50" height="50" style="fill:none; stroke:black; stroke-width:1"/><text x="17" y="-265" font-size="30" fill="black">1</text><rect x="-100" y="-600" width="50" height="50" style="fill:none; stroke:black; stroke-width:1"/><text x="17" y="-265" font-size="30" fill="black">1</text><rect x="-1" y="-7" width="50" height="50" style="fill:none; stroke:black; stroke-width:1"/><text x="17" y="35" font-size="30" fill="black">1</text><rect x="-50" y="-350" width="50" height="50" style="fill:none; stroke:black; stroke-width:1"/><text x="17" y="-315" font-size="30" fill="black">1</text><rect x="-100" y="-700" width="50" height="50" style="fill:none; stroke:black; stroke-width:1"/><text x="17" y="-315" font-size="30" fill="black">1</text><rect x="-1" y="-8" width="50" height="50" style="fill:none; stroke:black; stroke-width:1"/><text x="17" y="35" font-size="30" fill="black">1</text><rect x="-50" y="-400" width="50" height="50" style="fill:none; stroke:black; stroke-width:1"/><text x="17" y="-365" font-size="30" fill="black">1</text><rect x="-100" y="-800" width="50" height="50" style="fill:none; stroke:black; stroke-width:1"/><text x="17" y="-365" font-size="30" fill="black">1</text><rect x="-2" y="-6" width="50" height="50" style="fill:none; stroke:black; stroke-width:1"/><text x="17" y="35" font-size="30" fill="black">1</text><rect x="-100" y="-300" width="50" height="50" style="fill:none; stroke:black; stroke-width:1"/><text x="-33" y="-265" font-size="30" fill="black">1</text><rect x="-200" y="-600" width="50" height="50" style="fill:none; stroke:black; stroke-width:1"/><text x="-83" y="-265" font-size="30" fill="black">1</text><rect x="-2" y="-7" width="50" height="50" style="fill:none; stroke:black; stroke-width:1"/><text x="17" y="35" font-size="30" fill="black">1</text><rect x="-100" y="-350" width="50" height="50" style="fill:none; stroke:black; stroke-width:1"/><text x="-33" y="-315" font-size="30" fill="black">1</text><rect x="-200" y="-700" width="50" height="50" style="fill:none; stroke:black; stroke-width:1"/><text x="-83" y="-315" font-size="30" fill="black">1</text><rect x="-2" y="-8" width="50" height="50" style="fill:none; stroke:black; stroke-width:1"/><text x="17" y="35" font-size="30" fill="black">1</text><rect x="-100" y="-400" width="50" height="50" style="fill:none; stroke:black; stroke-width:1"/><text x="-33" y="-365" font-size="30" fill="black">1</text><rect x="-200" y="-800" width="50" height="50" style="fill:none; stroke:black; stroke-width:1"/><text x="-83" y="-365" font-size="30" fill="black">1</text><rect x="-3" y="0" width="50" height="50" style="fill:none; stroke:black; stroke-width:1"/><text x="17" y="35" font-size="30" fill="black">1</text><rect x="-150" y="0" width="50" height="50" style="fill:none; stroke:black; stroke-width:1"/><text x="-83" y="35" font-size="30" fill="black">1</text><rect x="-300" y="0" width="50" height="50" style="fill:none; stroke:black; stroke-width:1"/><text x="-183" y="35" font-size="30" fill="black">1</text><rect x="-3" y="-1" width="50" height="50" style="fill:none; stroke:black; stroke-width:1"/><text x="17" y="35" font-size="30" fill="black">1</text><rect x="-150" y="-50" width="50" height="50" style="fill:none; stroke:black; stroke-width:1"/><text x="-83" y="-15" font-size="30" fill="black">1</text><rect x="-300" y="-100" width="50" height="50" style="fill:none; stroke:black; stroke-width:1"/><text x="-183" y="-15" font-size="30" fill="black">1</text><rect x="-3" y="-2" width="50" height="50" style="fill:none; stroke:black; stroke-width:1"/><text x="17" y="35" font-size="30" fill="black">1</text><rect x="-150" y="-100" width="50" height="50" style="fill:none; stroke:black; stroke-width:1"/><text x="-83" y="-65" font-size="30" fill="black">1</text><rect x="-300" y="-200" width="50" height="50" style="fill:none; stroke:black; stroke-width:1"/><text x="-183" y="-65" font-size="30" fill="black">1</text><rect x="-4" y="0" width="50" height="50" style="fill:none; stroke:black; stroke-width:1"/><text x="17" y="35" font-size="30" fill="black">1</text><rect x="-200" y="0" width="50" height="50" style="fill:none; stroke:black; stroke-width:1"/><text x="-133" y="35" font-size="30" fill="black">1</text><rect x="-400" y="0" width="50" height="50" style="fill:none; stroke:black; stroke-width:1"/><text x="-283" y="35" font-size="30" fill="black">1</text><rect x="-4" y="-1" width="50" height="50" style="fill:none; stroke:black; stroke-width:1"/><text x="17" y="35" font-size="30" fill="black">1</text><rect x="-200" y="-50" width="50" height="50" style="fill:none; stroke:black; stroke-width:1"/><text x="-133" y="-15" font-size="30" fill="black">1</text><rect x="-400" y="-100" width="50" height="50" style="fill:none; stroke:black; stroke-width:1"/><text x="-283" y="-15" font-size="30" fill="black">1</text><rect x="-4" y="-2" width="50" height="50" style="fill:none; stroke:black; stroke-width:1"/><text x="17" y="35" font-size="30" fill="black">1</text><rect x="-200" y="-100" width="50" height="50" style="fill:none; stroke:black; stroke-width:1"/><text x="-133" y="-65" font-size="30" fill="black">1</text><rect x="-400" y="-200" width="50" height="50" style="fill:none; stroke:black; stroke-width:1"/><text x="-283" y="-65" font-size="30" fill="black">1</text><rect x="-5" y="0" width="50" height="50" style="fill:none; stroke:black; stroke-width:1"/><text x="17" y="35" font-size="30" fill="black">1</text><rect x="-250" y="0" width="50" height="50" style="fill:none; stroke:black; stroke-width:1"/><text x="-183" y="35" font-size="30" fill="black">1</text><rect x="-500" y="0" width="50" height="50" style="fill:none; stroke:black; stroke-width:1"/><text x="-383" y="35" font-size="30" fill="black">1</text><rect x="-5" y="-1" width="50" height="50" style="fill:none; stroke:black; stroke-width:1"/><text x="17" y="35" font-size="30" fill="black">1</text><rect x="-250" y="-50" width="50" height="50" style="fill:none; stroke:black; stroke-width:1"/><text x="-183" y="-15" font-size="30" fill="black">1</text><rect x="-500" y="-100" width="50" height="50" style="fill:none; stroke:black; stroke-width:1"/><text x="-383" y="-15" font-size="30" fill="black">1</text><rect x="-5" y="-2" width="50" height="50" style="fill:none; stroke:black; stroke-width:1"/><text x="17" y="35" font-size="30" fill="black">1</text><rect x="-250" y="-100" width="50" height="50" style="fill:none; stroke:black; stroke-width:1"/><text x="-183" y="-65" font-size="30" fill="black">1</text><rect x="-500" y="-200" width="50" height="50" style="fill:none; stroke:black; stroke-width:1"/><text x="-383" y="-65" font-size="30" fill="black">1</text><rect x="-3" y="-3" width="50" height="50" style="fill:none; stroke:black; stroke-width:1"/><text x="17" y="35" font-size="30" fill="black">1</text><rect x="-150" y="-150" width="50" height="50" style="fill:none; stroke:black; stroke-width:1"/><text x="-83" y="-115" font-size="30" fill="black">1</text><rect x="-300" y="-300" width="50" height="50" style="fill:none; stroke:black; stroke-width:1"/><text x="-183" y="-115" font-size="30" fill="black">1</text><rect x="-3" y="-4" width="50" height="50" style="fill:none; stroke:black; stroke-width:1"/><text x="17" y="35" font-size="30" fill="black">1</text><rect x="-150" y="-200" width="50" height="50" style="fill:none; stroke:black; stroke-width:1"/><text x="-83" y="-165" font-size="30" fill="black">1</text><rect x="-300" y="-400" width="50" height="50" style="fill:none; stroke:black; stroke-width:1"/><text x="-183" y="-165" font-size="30" fill="black">1</text><rect x="-3" y="-5" width="50" height="50" style="fill:none; stroke:black; stroke-width:1"/><text x="17" y="35" font-size="30" fill="black">1</text><rect x="-150" y="-250" width="50" height="50" style="fill:none; stroke:black; stroke-width:1"/><text x="-83" y="-215" font-size="30" fill="black">1</text><rect x="-300" y="-500" width="50" height="50" style="fill:none; stroke:black; stroke-width:1"/><text x="-183" y="-215" font-size="30" fill="black">1</text><rect x="-4" y="-3" width="50" height="50" style="fill:none; stroke:black; stroke-width:1"/><text x="17" y="35" font-size="30" fill="black">1</text><rect x="-200" y="-150" width="50" height="50" style="fill:none; stroke:black; stroke-width:1"/><text x="-133" y="-115" font-size="30" fill="black">1</text><rect x="-400" y="-300" width="50" height="50" style="fill:none; stroke:black; stroke-width:1"/><text x="-283" y="-115" font-size="30" fill="black">1</text><rect x="-4" y="-4" width="50" height="50" style="fill:none; stroke:black; stroke-width:1"/><text x="17" y="35" font-size="30" fill="black">1</text><rect x="-200" y="-200" width="50" height="50" style="fill:none; stroke:black; stroke-width:1"/><text x="-133" y="-165" font-size="30" fill="black">1</text><rect x="-400" y="-400" width="50" height="50" style="fill:none; stroke:black; stroke-width:1"/><text x="-283" y="-165" font-size="30" fill="black">1</text><rect x="-4" y="-5" width="50" height="50" style="fill:none; stroke:black; stroke-width:1"/><text x="17" y="35" font-size="30" fill="black">1</text><rect x="-200" y="-250" width="50" height="50" style="fill:none; stroke:black; stroke-width:1"/><text x="-133" y="-215" font-size="30" fill="black">1</text><rect x="-400" y="-500" width="50" height="50" style="fill:none; stroke:black; stroke-width:1"/><text x="-283" y="-215" font-size="30" fill="black">1</text><rect x="-5" y="-3" width="50" height="50" style="fill:none; stroke:black; stroke-width:1"/><text x="17" y="35" font-size="30" fill="black">1</text><rect x="-250" y="-150" width="50" height="50" style="fill:none; stroke:black; stroke-width:1"/><text x="-183" y="-115" font-size="30" fill="black">1</text><rect x="-500" y="-300" width="50" height="50" style="fill:none; stroke:black; stroke-width:1"/><text x="-383" y="-115" font-size="30" fill="black">1</text><rect x="-5" y="-4" width="50" height="50" style="fill:none; stroke:black; stroke-width:1"/><text x="17" y="35" font-size="30" fill="black">1</text><rect x="-250" y="-200" width="50" height="50" style="fill:none; stroke:black; stroke-width:1"/><text x="-183" y="-165" font-size="30" fill="black">1</text><rect x="-500" y="-400" width="50" height="50" style="fill:none; stroke:black; stroke-width:1"/><text x="-383" y="-165" font-size="30" fill="black">1</text><rect x="-5" y="-5" width="50" height="50" style="fill:none; stroke:black; stroke-width:1"/><text x="17" y="35" font-size="30" fill="black">1</text><rect x="-250" y="-250" width="50" height="50" style="fill:none; stroke:black; stroke-width:1"/><text x="-183" y="-215" font-size="30" fill="black">1</text><rect x="-500" y="-500" width="50" height="50" style="fill:none; stroke:black; stroke-width:1"/><text x="-383" y="-215" font-size="30" fill="black">1</text><rect x="-3" y="-6" width="50" height="50" style="fill:none; stroke:black; stroke-width:1"/><text x="17" y="35" font-size="30" fill="black">1</text><rect x="-150" y="-300" width="50" height="50" style="fill:none; stroke:black; stroke-width:1"/><text x="-83" y="-265" font-size="30" fill="black">1</text><rect x="-300" y="-600" width="50" height="50" style="fill:none; stroke:black; stroke-width:1"/><text x="-183" y="-265" font-size="30" fill="black">1</text><rect x="-3" y="-7" width="50" height="50" style="fill:none; stroke:black; stroke-width:1"/><text x="17" y="35" font-size="30" fill="black">1</text><rect x="-150" y="-350" width="50" height="50" style="fill:none; stroke:black; stroke-width:1"/><text x="-83" y="-315" font-size="30" fill="black">1</text><rect x="-300" y="-700" width="50" height="50" style="fill:none; stroke:black; stroke-width:1"/><text x="-183" y="-315" font-size="30" fill="black">1</text><rect x="-3" y="-8" width="50" height="50" style="fill:none; stroke:black; stroke-width:1"/><text x="17" y="35" font-size="30" fill="black">1</text><rect x="-150" y="-400" width="50" height="50" style="fill:none; stroke:black; stroke-width:1"/><text x="-83" y="-365" font-size="30" fill="black">1</text><rect x="-300" y="-800" width="50" height="50" style="fill:none; stroke:black; stroke-width:1"/><text x="-183" y="-365" font-size="30" fill="black">1</text><rect x="-4" y="-6" width="50" height="50" style="fill:none; stroke:black; stroke-width:1"/><text x="17" y="35" font-size="30" fill="black">1</text><rect x="-200" y="-300" width="50" height="50" style="fill:none; stroke:black; stroke-width:1"/><text x="-133" y="-265" font-size="30" fill="black">1</text><rect x="-400" y="-600" width="50" height="50" style="fill:none; stroke:black; stroke-width:1"/><text x="-283" y="-265" font-size="30" fill="black">1</text><rect x="-4" y="-7" width="50" height="50" style="fill:none; stroke:black; stroke-width:1"/><text x="17" y="35" font-size="30" fill="black">1</text><rect x="-200" y="-350" width="50" height="50" style="fill:none; stroke:black; stroke-width:1"/><text x="-133" y="-315" font-size="30" fill="black">1</text><rect x="-400" y="-700" width="50" height="50" style="fill:none; stroke:black; stroke-width:1"/><text x="-283" y="-315" font-size="30" fill="black">1</text><rect x="-4" y="-8" width="50" height="50" style="fill:none; stroke:black; stroke-width:1"/><text x="17" y="35" font-size="30" fill="black">1</text><rect x="-200" y="-400" width="50" height="50" style="fill:none; stroke:black; stroke-width:1"/><text x="-133" y="-365" font-size="30" fill="black">1</text><rect x="-400" y="-800" width="50" height="50" style="fill:none; stroke:black; stroke-width:1"/><text x="-283" y="-365" font-size="30" fill="black">1</text><rect x="-5" y="-6" width="50" height="50" style="fill:none; stroke:black; stroke-width:1"/><text x="17" y="35" font-size="30" fill="black">1</text><rect x="-250" y="-300" width="50" height="50" style="fill:none; stroke:black; stroke-width:1"/><text x="-183" y="-265" font-size="30" fill="black">1</text><rect x="-500" y="-600" width="50" height="50" style="fill:none; stroke:black; stroke-width:1"/><text x="-383" y="-265" font-size="30" fill="black">1</text><rect x="-5" y="-7" width="50" height="50" style="fill:none; stroke:black; stroke-width:1"/><text x="17" y="35" font-size="30" fill="black">1</text><rect x="-250" y="-350" width="50" height="50" style="fill:none; stroke:black; stroke-width:1"/><text x="-183" y="-315" font-size="30" fill="black">1</text><rect x="-500" y="-700" width="50" height="50" style="fill:none; stroke:black; stroke-width:1"/><text x="-383" y="-315" font-size="30" fill="black">1</text><rect x="-5" y="-8" width="50" height="50" style="fill:none; stroke:black; stroke-width:1"/><text x="17" y="35" font-size="30" fill="black">1</text><rect x="-250" y="-400" width="50" height="50" style="fill:none; stroke:black; stroke-width:1"/><text x="-183" y="-365" font-size="30" fill="black">1</text><rect x="-500" y="-800" width="50" height="50" style="fill:none; stroke:black; stroke-width:1"/><text x="-383" y="-365" font-size="30" fill="black">1</text><rect x="-6" y="0" width="50" height="50" style="fill:none; stroke:black; stroke-width:1"/><text x="17" y="35" font-size="30" fill="black">1</text><rect x="-300" y="0" width="50" height="50" style="fill:none; stroke:black; stroke-width:1"/><text x="-233" y="35" font-size="30" fill="black">1</text><rect x="-600" y="0" width="50" height="50" style="fill:none; stroke:black; stroke-width:1"/><text x="-483" y="35" font-size="30" fill="black">1</text><rect x="-6" y="-1" width="50" height="50" style="fill:none; stroke:black; stroke-width:1"/><text x="17" y="35" font-size="30" fill="black">1</text><rect x="-300" y="-50" width="50" height="50" style="fill:none; stroke:black; stroke-width:1"/><text x="-233" y="-15" font-size="30" fill="black">1</text><rect x="-600" y="-100" width="50" height="50" style="fill:none; stroke:black; stroke-width:1"/><text x="-483" y="-15" font-size="30" fill="black">1</text><rect x="-6" y="-2" width="50" height="50" style="fill:none; stroke:black; stroke-width:1"/><text x="17" y="35" font-size="30" fill="black">1</text><rect x="-300" y="-100" width="50" height="50" style="fill:none; stroke:black; stroke-width:1"/><text x="-233" y="-65" font-size="30" fill="black">1</text><rect x="-600" y="-200" width="50" height="50" style="fill:none; stroke:black; stroke-width:1"/><text x="-483" y="-65" font-size="30" fill="black">1</text><rect x="-7" y="0" width="50" height="50" style="fill:none; stroke:black; stroke-width:1"/><text x="17" y="35" font-size="30" fill="black">1</text><rect x="-350" y="0" width="50" height="50" style="fill:none; stroke:black; stroke-width:1"/><text x="-283" y="35" font-size="30" fill="black">1</text><rect x="-700" y="0" width="50" height="50" style="fill:none; stroke:black; stroke-width:1"/><text x="-583" y="35" font-size="30" fill="black">1</text><rect x="-7" y="-1" width="50" height="50" style="fill:none; stroke:black; stroke-width:1"/><text x="17" y="35" font-size="30" fill="black">1</text><rect x="-350" y="-50" width="50" height="50" style="fill:none; stroke:black; stroke-width:1"/><text x="-283" y="-15" font-size="30" fill="black">1</text><rect x="-700" y="-100" width="50" height="50" style="fill:none; stroke:black; stroke-width:1"/><text x="-583" y="-15" font-size="30" fill="black">1</text><rect x="-7" y="-2" width="50" height="50" style="fill:none; stroke:black; stroke-width:1"/><text x="17" y="35" font-size="30" fill="black">1</text><rect x="-350" y="-100" width="50" height="50" style="fill:none; stroke:black; stroke-width:1"/><text x="-283" y="-65" font-size="30" fill="black">1</text><rect x="-700" y="-200" width="50" height="50" style="fill:none; stroke:black; stroke-width:1"/><text x="-583" y="-65" font-size="30" fill="black">1</text><rect x="-8" y="0" width="50" height="50" style="fill:none; stroke:black; stroke-width:1"/><text x="17" y="35" font-size="30" fill="black">1</text><rect x="-400" y="0" width="50" height="50" style="fill:none; stroke:black; stroke-width:1"/><text x="-333" y="35" font-size="30" fill="black">1</text><rect x="-800" y="0" width="50" height="50" style="fill:none; stroke:black; stroke-width:1"/><text x="-683" y="35" font-size="30" fill="black">1</text><rect x="-8" y="-1" width="50" height="50" style="fill:none; stroke:black; stroke-width:1"/><text x="17" y="35" font-size="30" fill="black">1</text><rect x="-400" y="-50" width="50" height="50" style="fill:none; stroke:black; stroke-width:1"/><text x="-333" y="-15" font-size="30" fill="black">1</text><rect x="-800" y="-100" width="50" height="50" style="fill:none; stroke:black; stroke-width:1"/><text x="-683" y="-15" font-size="30" fill="black">1</text><rect x="-8" y="-2" width="50" height="50" style="fill:none; stroke:black; stroke-width:1"/><text x="17" y="35" font-size="30" fill="black">1</text><rect x="-400" y="-100" width="50" height="50" style="fill:none; stroke:black; stroke-width:1"/><text x="-333" y="-65" font-size="30" fill="black">1</text><rect x="-800" y="-200" width="50" height="50" style="fill:none; stroke:black; stroke-width:1"/><text x="-683" y="-65" font-size="30" fill="black">1</text><rect x="-6" y="-3" width="50" height="50" style="fill:none; stroke:black; stroke-width:1"/><text x="17" y="35" font-size="30" fill="black">1</text><rect x="-300" y="-150" width="50" height="50" style="fill:none; stroke:black; stroke-width:1"/><text x="-233" y="-115" font-size="30" fill="black">1</text><rect x="-600" y="-300" width="50" height="50" style="fill:none; stroke:black; stroke-width:1"/><text x="-483" y="-115" font-size="30" fill="black">1</text><rect x="-6" y="-4" width="50" height="50" style="fill:none; stroke:black; stroke-width:1"/><text x="17" y="35" font-size="30" fill="black">1</text><rect x="-300" y="-200" width="50" height="50" style="fill:none; stroke:black; stroke-width:1"/><text x="-233" y="-165" font-size="30" fill="black">1</text><rect x="-600" y="-400" width="50" height="50" style="fill:none; stroke:black; stroke-width:1"/><text x="-483" y="-165" font-size="30" fill="black">1</text><rect x="-6" y="-5" width="50" height="50" style="fill:none; stroke:black; stroke-width:1"/><text x="17" y="35" font-size="30" fill="black">1</text><rect x="-300" y="-250" width="50" height="50" style="fill:none; stroke:black; stroke-width:1"/><text x="-233" y="-215" font-size="30" fill="black">1</text><rect x="-600" y="-500" width="50" height="50" style="fill:none; stroke:black; stroke-width:1"/><text x="-483" y="-215" font-size="30" fill="black">1</text><rect x="-7" y="-3" width="50" height="50" style="fill:none; stroke:black; stroke-width:1"/><text x="17" y="35" font-size="30" fill="black">1</text><rect x="-350" y="-150" width="50" height="50" style="fill:none; stroke:black; stroke-width:1"/><text x="-283" y="-115" font-size="30" fill="black">1</text><rect x="-700" y="-300" width="50" height="50" style="fill:none; stroke:black; stroke-width:1"/><text x="-583" y="-115" font-size="30" fill="black">1</text><rect x="-7" y="-4" width="50" height="50" style="fill:none; stroke:black; stroke-width:1"/><text x="17" y="35" font-size="30" fill="black">1</text><rect x="-350" y="-200" width="50" height="50" style="fill:none; stroke:black; stroke-width:1"/><text x="-283" y="-165" font-size="30" fill="black">1</text><rect x="-700" y="-400" width="50" height="50" style="fill:none; stroke:black; stroke-width:1"/><text x="-583" y="-165" font-size="30" fill="black">1</text><rect x="-7" y="-5" width="50" height="50" style="fill:none; stroke:black; stroke-width:1"/><text x="17" y="35" font-size="30" fill="black">1</text><rect x="-350" y="-250" width="50" height="50" style="fill:none; stroke:black; stroke-width:1"/><text x="-283" y="-215" font-size="30" fill="black">1</text><rect x="-700" y="-500" width="50" height="50" style="fill:none; stroke:black; stroke-width:1"/><text x="-583" y="-215" font-size="30" fill="black">1</text><rect x="-8" y="-3" width="50" height="50" style="fill:none; stroke:black; stroke-width:1"/><text x="17" y="35" font-size="30" fill="black">1</text><rect x="-400" y="-150" width="50" height="50" style="fill:none; stroke:black; stroke-width:1"/><text x="-333" y="-115" font-size="30" fill="black">1</text><rect x="-800" y="-300" width="50" height="50" style="fill:none; stroke:black; stroke-width:1"/><text x="-683" y="-115" font-size="30" fill="black">1</text><rect x="-8" y="-4" width="50" height="50" style="fill:none; stroke:black; stroke-width:1"/><text x="17" y="35" font-size="30" fill="black">1</text><rect x="-400" y="-200" width="50" height="50" style="fill:none; stroke:black; stroke-width:1"/><text x="-333" y="-165" font-size="30" fill="black">1</text><rect x="-800" y="-400" width="50" height="50" style="fill:none; stroke:black; stroke-width:1"/><text x="-683" y="-165" font-size="30" fill="black">1</text><rect x="-8" y="-5" width="50" height="50" style="fill:none; stroke:black; stroke-width:1"/><text x="17" y="35" font-size="30" fill="black">1</text><rect x="-400" y="-250" width="50" height="50" style="fill:none; stroke:black; stroke-width:1"/><text x="-333" y="-215" font-size="30" fill="black">1</text><rect x="-800" y="-500" width="50" height="50" style="fill:none; stroke:black; stroke-width:1"/><text x="-683" y="-215" font-size="30" fill="black">1</text><rect x="-6" y="-6" width="50" height="50" style="fill:none; stroke:black; stroke-width:1"/><text x="17" y="35" font-size="30" fill="black">1</text><rect x="-300" y="-300" width="50" height="50" style="fill:none; stroke:black; stroke-width:1"/><text x="-233" y="-265" font-size="30" fill="black">1</text><rect x="-600" y="-600" width="50" height="50" style="fill:none; stroke:black; stroke-width:1"/><text x="-483" y="-265" font-size="30" fill="black">1</text><rect x="-6" y="-7" width="50" height="50" style="fill:none; stroke:black; stroke-width:1"/><text x="17" y="35" font-size="30" fill="black">1</text><rect x="-300" y="-350" width="50" height="50" style="fill:none; stroke:black; stroke-width:1"/><text x="-233" y="-315" font-size="30" fill="black">1</text><rect x="-600" y="-700" width="50" height="50" style="fill:none; stroke:black; stroke-width:1"/><text x="-483" y="-315" font-size="30" fill="black">1</text><rect x="-6" y="-8" width="50" height="50" style="fill:none; stroke:black; stroke-width:1"/><text x="17" y="35" font-size="30" fill="black">1</text><rect x="-300" y="-400" width="50" height="50" style="fill:none; stroke:black; stroke-width:1"/><text x="-233" y="-365" font-size="30" fill="black">1</text><rect x="-600" y="-800" width="50" height="50" style="fill:none; stroke:black; stroke-width:1"/><text x="-483" y="-365" font-size="30" fill="black">1</text><rect x="-7" y="-6" width="50" height="50" style="fill:none; stroke:black; stroke-width:1"/><text x="17" y="35" font-size="30" fill="black">1</text><rect x="-350" y="-300" width="50" height="50" style="fill:none; stroke:black; stroke-width:1"/><text x="-283" y="-265" font-size="30" fill="black">1</text><rect x="-700" y="-600" width="50" height="50" style="fill:none; stroke:black; stroke-width:1"/><text x="-583" y="-265" font-size="30" fill="black">1</text><rect x="-7" y="-7" width="50" height="50" style="fill:none; stroke:black; stroke-width:1"/><text x="17" y="35" font-size="30" fill="black">1</text><rect x="-350" y="-350" width="50" height="50" style="fill:none; stroke:black; stroke-width:1"/><text x="-283" y="-315" font-size="30" fill="black">1</text><rect x="-700" y="-700" width="50" height="50" style="fill:none; stroke:black; stroke-width:1"/><text x="-583" y="-315" font-size="30" fill="black">1</text><rect x="-7" y="-8" width="50" height="50" style="fill:none; stroke:black; stroke-width:1"/><text x="17" y="35" font-size="30" fill="black">1</text><rect x="-350" y="-400" width="50" height="50" style="fill:none; stroke:black; stroke-width:1"/><text x="-283" y="-365" font-size="30" fill="black">1</text><rect x="-700" y="-800" width="50" height="50" style="fill:none; stroke:black; stroke-width:1"/><text x="-583" y="-365" font-size="30" fill="black">1</text><rect x="-8" y="-6" width="50" height="50" style="fill:none; stroke:black; stroke-width:1"/><text x="17" y="35" font-size="30" fill="black">1</text><rect x="-400" y="-300" width="50" height="50" style="fill:none; stroke:black; stroke-width:1"/><text x="-333" y="-265" font-size="30" fill="black">1</text><rect x="-800" y="-600" width="50" height="50" style="fill:none; stroke:black; stroke-width:1"/><text x="-683" y="-265" font-size="30" fill="black">1</text><rect x="-8" y="-7" width="50" height="50" style="fill:none; stroke:black; stroke-width:1"/><text x="17" y="35" font-size="30" fill="black">1</text><rect x="-400" y="-350" width="50" height="50" style="fill:none; stroke:black; stroke-width:1"/><text x="-333" y="-315" font-size="30" fill="black">1</text><rect x="-800" y="-700" width="50" height="50" style="fill:none; stroke:black; stroke-width:1"/><text x="-683" y="-315" font-size="30" fill="black">1</text><rect x="-8" y="-8" width="50" height="50" style="fill:none; stroke:black; stroke-width:1"/><text x="17" y="35" font-size="30" fill="black">1</text><rect x="-400" y="-400" width="50" height="50" style="fill:none; stroke:black; stroke-width:1"/><text x="-333" y="-365" font-size="30" fill="black">1</text><rect x="-800" y="-800" width="50" height="50" style="fill:none; stroke:black; stroke-width:1"/><text x="-683" y="-365" font-size="30" fill="black">1</text></svg>
